<svg xmlns="http://www.w3.org/2000/svg" xmlns:xlink="http://www.w3.org/1999/xlink" width="600" zoomAndPan="magnify" viewBox="0 0 450 74.999997" height="100" preserveAspectRatio="xMidYMid meet" version="1.0"><defs><clipPath id="18824165a1"><path d="M 56.320312 18.253906 L 450 18.253906 L 450 74.507812 L 56.320312 74.507812 Z M 56.320312 18.253906 " clip-rule="nonzero"/></clipPath><clipPath id="f7059cedaa"><path d="M 293.058594 1 L 450 1 L 450 74.507812 L 293.058594 74.507812 Z M 293.058594 1 " clip-rule="nonzero"/></clipPath></defs><g clip-path="url(#18824165a1)"><path fill="#041b35" d="M 290.375 35.167969 C 290.246094 35.789062 290.074219 36.539062 289.832031 37.382812 C 289.589844 38.226562 289.3125 39.183594 288.925781 40.195312 C 288.558594 41.21875 288.128906 42.316406 287.609375 43.449219 C 287.097656 44.585938 286.503906 45.761719 285.839844 46.949219 C 285.167969 48.136719 284.429688 49.339844 283.609375 50.519531 C 282.804688 51.710938 281.902344 52.859375 280.972656 53.984375 C 280.507812 54.546875 280 55.078125 279.519531 55.621094 C 279.019531 56.15625 278.5 56.664062 277.992188 57.171875 C 276.953125 58.167969 275.878906 59.097656 274.792969 59.941406 C 274.242188 60.347656 273.714844 60.769531 273.167969 61.136719 C 272.617188 61.5 272.085938 61.867188 271.550781 62.195312 C 271.011719 62.511719 270.484375 62.816406 269.972656 63.113281 C 269.453125 63.386719 268.9375 63.636719 268.453125 63.882812 C 267.480469 64.378906 266.542969 64.738281 265.726562 65.0625 C 264.894531 65.355469 264.167969 65.609375 263.558594 65.78125 C 262.335938 66.109375 261.632812 66.261719 261.632812 66.261719 C 261.632812 66.261719 262.242188 65.859375 263.3125 65.226562 C 263.847656 64.914062 264.46875 64.46875 265.199219 64.027344 C 265.5625 63.796875 265.933594 63.523438 266.324219 63.253906 C 266.71875 62.976562 267.148438 62.714844 267.5625 62.390625 C 267.980469 62.074219 268.425781 61.757812 268.871094 61.414062 C 269.3125 61.066406 269.765625 60.707031 270.234375 60.335938 C 270.691406 59.953125 271.160156 59.558594 271.640625 59.15625 C 272.109375 58.75 272.582031 58.316406 273.0625 57.886719 C 273.542969 57.449219 274.007812 56.988281 274.496094 56.53125 C 274.964844 56.058594 275.4375 55.582031 275.914062 55.101562 C 276.375 54.601562 276.839844 54.097656 277.308594 53.59375 C 277.753906 53.074219 278.226562 52.570312 278.660156 52.03125 C 279.101562 51.503906 279.550781 50.980469 279.96875 50.433594 C 280.398438 49.894531 280.824219 49.355469 281.230469 48.804688 C 281.644531 48.269531 282.027344 47.710938 282.429688 47.175781 C 282.8125 46.621094 283.1875 46.078125 283.558594 45.542969 C 284.285156 44.460938 284.980469 43.402344 285.605469 42.382812 C 286.234375 41.363281 286.832031 40.386719 287.355469 39.472656 C 287.871094 38.546875 288.347656 37.699219 288.761719 36.953125 C 289.164062 36.1875 289.53125 35.523438 289.808594 34.96875 C 290.09375 34.410156 290.316406 33.972656 290.464844 33.675781 C 290.617188 33.375 290.695312 33.210938 290.695312 33.210938 C 290.695312 33.210938 290.636719 33.933594 290.375 35.167969 Z M 97.90625 66.234375 C 97.539062 66.238281 96.996094 66.269531 96.304688 66.261719 C 95.613281 66.238281 94.777344 66.167969 93.808594 66.066406 C 92.863281 65.886719 91.75 65.769531 90.601562 65.421875 C 89.429688 65.125 88.199219 64.683594 86.917969 64.148438 C 85.644531 63.59375 84.332031 62.921875 83.046875 62.113281 C 82.414062 61.703125 81.75 61.296875 81.136719 60.816406 C 80.820312 60.582031 80.503906 60.347656 80.191406 60.109375 C 79.875 59.871094 79.585938 59.601562 79.277344 59.347656 C 78.046875 58.335938 76.921875 57.171875 75.828125 55.992188 C 75.296875 55.386719 74.785156 54.765625 74.277344 54.148438 C 73.792969 53.511719 73.300781 52.886719 72.859375 52.230469 C 72.636719 51.910156 72.414062 51.585938 72.191406 51.265625 C 71.988281 50.933594 71.78125 50.605469 71.578125 50.28125 C 71.160156 49.632812 70.789062 48.96875 70.425781 48.320312 C 69.707031 47.011719 69.078125 45.714844 68.542969 44.464844 C 67.992188 43.21875 67.554688 42.003906 67.171875 40.886719 C 66.800781 39.761719 66.507812 38.714844 66.277344 37.785156 C 66.03125 36.859375 65.882812 36.035156 65.757812 35.355469 C 65.515625 34 65.472656 33.210938 65.472656 33.210938 C 65.472656 33.210938 65.824219 33.910156 66.4375 35.128906 C 66.753906 35.726562 67.132812 36.457031 67.570312 37.289062 C 68.011719 38.121094 68.53125 39.039062 69.089844 40.039062 C 69.660156 41.03125 70.273438 42.105469 70.960938 43.214844 C 71.632812 44.324219 72.378906 45.472656 73.164062 46.644531 C 73.964844 47.808594 74.800781 48.992188 75.699219 50.15625 C 76.59375 51.316406 77.539062 52.464844 78.53125 53.566406 C 79.039062 54.105469 79.511719 54.671875 80.046875 55.179688 L 80.820312 55.964844 C 81.082031 56.222656 81.351562 56.460938 81.621094 56.710938 C 82.675781 57.707031 83.773438 58.617188 84.871094 59.460938 C 85.972656 60.296875 87.078125 61.046875 88.167969 61.714844 C 89.257812 62.367188 90.316406 62.96875 91.335938 63.445312 C 91.585938 63.570312 91.832031 63.695312 92.078125 63.820312 C 92.320312 63.933594 92.566406 64.023438 92.800781 64.128906 C 93.277344 64.335938 93.730469 64.535156 94.152344 64.71875 C 95.03125 65.015625 95.789062 65.335938 96.429688 65.546875 C 97.074219 65.734375 97.582031 65.914062 97.933594 66.023438 C 98.28125 66.144531 98.46875 66.207031 98.46875 66.207031 C 98.46875 66.207031 98.273438 66.21875 97.90625 66.234375 Z M 440.453125 1.207031 L 348.714844 1.207031 C 344.40625 1.207031 340.765625 4.101562 339.640625 8.054688 C 296.453125 10.972656 285.195312 25.066406 283.945312 26.835938 L 283.957031 26.84375 L 56.417969 26.84375 C 56.417969 53.425781 77.972656 74.980469 104.558594 74.980469 L 249.910156 74.980469 C 272.722656 74.980469 291.824219 59.109375 296.785156 37.808594 C 297.910156 33 301.300781 29.023438 305.90625 27.222656 C 314.320312 23.941406 328.097656 20.628906 349.878906 20.097656 L 440.453125 20.097656 C 445.667969 20.097656 449.898438 15.871094 449.898438 10.652344 C 449.898438 5.4375 445.667969 1.207031 440.453125 1.207031 " fill-opacity="1" fill-rule="nonzero"/></g><g clip-path="url(#f7059cedaa)"><path fill="#041b35" d="M 290.375 35.167969 C 290.246094 35.789062 290.074219 36.539062 289.832031 37.382812 C 289.589844 38.226562 289.3125 39.183594 288.925781 40.195312 C 288.558594 41.21875 288.128906 42.316406 287.609375 43.449219 C 287.097656 44.585938 286.503906 45.761719 285.839844 46.949219 C 285.167969 48.136719 284.429688 49.339844 283.609375 50.519531 C 282.804688 51.710938 281.902344 52.859375 280.972656 53.984375 C 280.507812 54.546875 280 55.078125 279.519531 55.621094 C 279.019531 56.15625 278.5 56.664062 277.992188 57.171875 C 276.953125 58.167969 275.878906 59.097656 274.792969 59.941406 C 274.242188 60.347656 273.714844 60.769531 273.167969 61.136719 C 272.617188 61.5 272.085938 61.867188 271.550781 62.195312 C 271.011719 62.511719 270.484375 62.816406 269.972656 63.113281 C 269.453125 63.386719 268.9375 63.636719 268.453125 63.882812 C 267.480469 64.378906 266.542969 64.738281 265.726562 65.0625 C 264.894531 65.355469 264.167969 65.609375 263.558594 65.78125 C 262.335938 66.109375 261.632812 66.261719 261.632812 66.261719 C 261.632812 66.261719 262.242188 65.859375 263.3125 65.226562 C 263.847656 64.914062 264.46875 64.46875 265.199219 64.027344 C 265.5625 63.796875 265.933594 63.523438 266.324219 63.253906 C 266.71875 62.976562 267.148438 62.714844 267.5625 62.390625 C 267.980469 62.074219 268.425781 61.757812 268.871094 61.414062 C 269.3125 61.066406 269.765625 60.707031 270.234375 60.335938 C 270.691406 59.953125 271.160156 59.558594 271.640625 59.15625 C 272.109375 58.75 272.582031 58.316406 273.0625 57.886719 C 273.542969 57.449219 274.007812 56.988281 274.496094 56.53125 C 274.964844 56.058594 275.4375 55.582031 275.914062 55.101562 C 276.375 54.601562 276.839844 54.097656 277.308594 53.59375 C 277.753906 53.074219 278.226562 52.570312 278.660156 52.03125 C 279.101562 51.503906 279.550781 50.980469 279.96875 50.433594 C 280.398438 49.894531 280.824219 49.355469 281.230469 48.804688 C 281.644531 48.269531 282.027344 47.710938 282.429688 47.175781 C 282.8125 46.621094 283.1875 46.078125 283.558594 45.542969 C 284.285156 44.460938 284.980469 43.402344 285.605469 42.382812 C 286.234375 41.363281 286.832031 40.386719 287.355469 39.472656 C 287.871094 38.546875 288.347656 37.699219 288.761719 36.953125 C 289.164062 36.1875 289.53125 35.523438 289.808594 34.96875 C 290.09375 34.410156 290.316406 33.972656 290.464844 33.675781 C 290.617188 33.375 290.695312 33.210938 290.695312 33.210938 C 290.695312 33.210938 290.636719 33.933594 290.375 35.167969 Z M 97.90625 66.234375 C 97.539062 66.238281 96.996094 66.269531 96.304688 66.261719 C 95.613281 66.238281 94.777344 66.167969 93.808594 66.066406 C 92.863281 65.886719 91.75 65.769531 90.601562 65.421875 C 89.429688 65.125 88.199219 64.683594 86.917969 64.148438 C 85.644531 63.589844 84.332031 62.921875 83.046875 62.113281 C 82.414062 61.703125 81.75 61.296875 81.136719 60.816406 C 80.820312 60.582031 80.503906 60.347656 80.191406 60.109375 C 79.875 59.871094 79.585938 59.601562 79.277344 59.347656 C 78.046875 58.335938 76.921875 57.171875 75.828125 55.992188 C 75.296875 55.386719 74.785156 54.765625 74.277344 54.148438 C 73.792969 53.511719 73.300781 52.882812 72.859375 52.230469 C 72.636719 51.910156 72.414062 51.585938 72.191406 51.265625 C 71.988281 50.933594 71.78125 50.605469 71.578125 50.28125 C 71.160156 49.632812 70.789062 48.96875 70.425781 48.320312 C 69.707031 47.011719 69.078125 45.714844 68.542969 44.464844 C 67.992188 43.21875 67.554688 42.003906 67.171875 40.886719 C 66.800781 39.761719 66.507812 38.714844 66.277344 37.785156 C 66.03125 36.859375 65.882812 36.035156 65.757812 35.355469 C 65.515625 34 65.472656 33.210938 65.472656 33.210938 C 65.472656 33.210938 65.824219 33.910156 66.4375 35.128906 C 66.753906 35.726562 67.132812 36.457031 67.570312 37.289062 C 68.011719 38.121094 68.53125 39.039062 69.089844 40.039062 C 69.660156 41.03125 70.273438 42.105469 70.960938 43.214844 C 71.632812 44.324219 72.378906 45.472656 73.164062 46.644531 C 73.964844 47.808594 74.800781 48.992188 75.699219 50.15625 C 76.59375 51.316406 77.539062 52.464844 78.53125 53.566406 C 79.039062 54.105469 79.511719 54.671875 80.046875 55.179688 L 80.820312 55.964844 C 81.082031 56.222656 81.351562 56.460938 81.621094 56.710938 C 82.675781 57.707031 83.773438 58.617188 84.871094 59.460938 C 85.972656 60.296875 87.078125 61.046875 88.167969 61.714844 C 89.257812 62.367188 90.316406 62.96875 91.335938 63.445312 C 91.585938 63.570312 91.832031 63.695312 92.078125 63.820312 C 92.320312 63.933594 92.566406 64.023438 92.800781 64.128906 C 93.277344 64.335938 93.730469 64.535156 94.152344 64.71875 C 95.03125 65.015625 95.789062 65.335938 96.429688 65.546875 C 97.074219 65.734375 97.582031 65.914062 97.933594 66.023438 C 98.28125 66.144531 98.46875 66.207031 98.46875 66.207031 C 98.46875 66.207031 98.273438 66.21875 97.90625 66.234375 Z M 440.453125 1.207031 L 348.714844 1.207031 C 344.40625 1.207031 340.765625 4.101562 339.640625 8.054688 C 296.453125 10.972656 285.195312 25.066406 283.945312 26.835938 L 283.957031 26.84375 L 56.417969 26.84375 C 56.417969 53.425781 77.972656 74.980469 104.558594 74.980469 L 249.910156 74.980469 C 272.722656 74.980469 291.824219 59.109375 296.785156 37.808594 C 297.910156 33 301.300781 29.023438 305.90625 27.222656 C 314.320312 23.941406 328.097656 20.628906 349.878906 20.097656 L 440.453125 20.097656 C 445.667969 20.097656 449.898438 15.867188 449.898438 10.652344 C 449.898438 5.4375 445.667969 1.207031 440.453125 1.207031 " fill-opacity="1" fill-rule="nonzero"/></g></svg>