<svg width="99" height="262" viewBox="0 0 99 262" fill="none" xmlns="http://www.w3.org/2000/svg">
<g filter="url(#filter0_d_1_2)">
<path d="M5.99999 118C-3.07674 68.8625 60 2 60 2C60 2 45.9184 62.1721 55 99C62.7385 130.382 94.9073 139.691 94 172C92.6889 218.69 5.99999 253 5.99999 253C5.99999 253 44.3682 213.236 43 182C41.7367 153.158 11.2441 146.389 5.99999 118Z" fill="#9356DC"/>
<path d="M5.99999 118C-3.07674 68.8625 60 2 60 2C60 2 45.9184 62.1721 55 99C62.7385 130.382 94.9073 139.691 94 172C92.6889 218.69 5.99999 253 5.99999 253C5.99999 253 44.3682 213.236 43 182C41.7367 153.158 11.2441 146.389 5.99999 118Z" stroke="#9356DC"/>
</g>
<defs>
<filter id="filter0_d_1_2" x="0.606567" y="0.307083" width="97.9122" height="261.158" filterUnits="userSpaceOnUse" color-interpolation-filters="sRGB">
<feFlood flood-opacity="0" result="BackgroundImageFix"/>
<feColorMatrix in="SourceAlpha" type="matrix" values="0 0 0 0 0 0 0 0 0 0 0 0 0 0 0 0 0 0 127 0" result="hardAlpha"/>
<feOffset dy="4"/>
<feGaussianBlur stdDeviation="2"/>
<feComposite in2="hardAlpha" operator="out"/>
<feColorMatrix type="matrix" values="0 0 0 0 0 0 0 0 0 0 0 0 0 0 0 0 0 0 0.25 0"/>
<feBlend mode="normal" in2="BackgroundImageFix" result="effect1_dropShadow_1_2"/>
<feBlend mode="normal" in="SourceGraphic" in2="effect1_dropShadow_1_2" result="shape"/>
</filter>
</defs>
</svg>
